# xmcd
#
# Track frame offsets: 
#        150
#        14985
#        31068
#        48541
#        61885
#        83883
#        105478
#        122902
#        141058
#        158700
#        176233
#        198125
#        214943
#
# Disc length: 3105 seconds
#
# Revision: 8
# Processed by: cddbd v1.5.2PL0 Copyright (c) Steve Scherf et al.
# Submitted via: ExactAudioCopyFreeDBPlugin 1.0
#
DISCID=b50c1f0d
DTITLE=Lady Antebellum - Own the Night
DYEAR=2011
DGENRE=Country
TTITLE0=We Owned the Night
TTITLE1=Just a Kiss
TTITLE2=Dancin' Away with My Heart
TTITLE3=Friday Night
TTITLE4=When You Were Mine
TTITLE5=Cold as Stone
TTITLE6=Singing Me Home
TTITLE7=Wanted You More
TTITLE8=As You Turn Away
TTITLE9=Love I've Found in You
TTITLE10=Somewhere Love Remains
TTITLE11=Heart of the World
TTITLE12=Need You Now [Acoustic]
EXTD=Location:  - UPC: 5099968070328 - Catalogue number: 509996 80703 2 
EXTD=8 - Label: Capitol Records - ASIN: B005HNN0U2 - Release Date: 2011 1
EXTD=0 03 - Discogs: a1333451,m380949,r3853082 - MUSICBRAINZ_ALBUMID: 6e
EXTD=709b21-50a0-43ce-bd76-afffe3c792f9 - AMG:MN0000946769,MW0002191086
EXTD=;
EXTT0=
EXTT1=
EXTT2=
EXTT3=
EXTT4=
EXTT5=
EXTT6=
EXTT7=
EXTT8=
EXTT9=
EXTT10=
EXTT11=
EXTT12=
PLAYORDER=
